<mxfile host="Electron" agent="Mozilla/5.0 (Windows NT 10.0; Win64; x64) AppleWebKit/537.36 (KHTML, like Gecko) draw.io/26.1.1 Chrome/132.0.6834.210 Electron/34.3.3 Safari/537.36" version="26.1.1">
  <diagram name="Page-1" id="CVUQL5t4Vdhq_WjzfKM_">
    <mxGraphModel dx="1948" dy="820" grid="1" gridSize="10" guides="1" tooltips="1" connect="1" arrows="1" fold="1" page="1" pageScale="1" pageWidth="850" pageHeight="1100" math="0" shadow="0">
      <root>
        <mxCell id="0" />
        <mxCell id="1" parent="0" />
        <mxCell id="KqgRrOueQQoX8KedvCJ1-1" value="&lt;b&gt;Sales Data Mart&amp;nbsp;&lt;/b&gt;" style="text;html=1;align=center;verticalAlign=middle;whiteSpace=wrap;rounded=0;labelBorderColor=default;fontSize=40;fillColor=none;gradientColor=none;strokeColor=none;" vertex="1" parent="1">
          <mxGeometry x="-110" y="20" width="330" height="20" as="geometry" />
        </mxCell>
        <mxCell id="KqgRrOueQQoX8KedvCJ1-2" value="&lt;font style=&quot;font-size: 40px;&quot;&gt;(Star Schema)&lt;/font&gt;" style="text;html=1;align=center;verticalAlign=middle;whiteSpace=wrap;rounded=0;" vertex="1" parent="1">
          <mxGeometry x="205" width="310" height="50" as="geometry" />
        </mxCell>
        <mxCell id="KqgRrOueQQoX8KedvCJ1-3" value="&lt;span&gt;gold.dim_customers&lt;/span&gt;" style="shape=table;startSize=30;container=1;collapsible=1;childLayout=tableLayout;fixedRows=1;rowLines=0;fontStyle=1;align=center;resizeLast=1;html=1;rounded=1;fillColor=#fff2cc;strokeColor=#d6b656;fontSize=16;" vertex="1" parent="1">
          <mxGeometry x="-60" y="120" width="180" height="600" as="geometry" />
        </mxCell>
        <mxCell id="KqgRrOueQQoX8KedvCJ1-4" value="" style="shape=tableRow;horizontal=0;startSize=0;swimlaneHead=0;swimlaneBody=0;fillColor=none;collapsible=0;dropTarget=0;points=[[0,0.5],[1,0.5]];portConstraint=eastwest;top=0;left=0;right=0;bottom=1;fontSize=16;fontStyle=1" vertex="1" parent="KqgRrOueQQoX8KedvCJ1-3">
          <mxGeometry y="30" width="180" height="57" as="geometry" />
        </mxCell>
        <mxCell id="KqgRrOueQQoX8KedvCJ1-5" value="&lt;span&gt;PK&lt;/span&gt;" style="shape=partialRectangle;connectable=0;fillColor=none;top=0;left=0;bottom=0;right=0;fontStyle=1;overflow=hidden;whiteSpace=wrap;html=1;fontSize=16;" vertex="1" parent="KqgRrOueQQoX8KedvCJ1-4">
          <mxGeometry width="30" height="57" as="geometry">
            <mxRectangle width="30" height="57" as="alternateBounds" />
          </mxGeometry>
        </mxCell>
        <mxCell id="KqgRrOueQQoX8KedvCJ1-6" value="&lt;span&gt;customer_key&lt;/span&gt;" style="shape=partialRectangle;connectable=0;fillColor=none;top=0;left=0;bottom=0;right=0;align=left;spacingLeft=6;fontStyle=5;overflow=hidden;whiteSpace=wrap;html=1;fontSize=16;" vertex="1" parent="KqgRrOueQQoX8KedvCJ1-4">
          <mxGeometry x="30" width="150" height="57" as="geometry">
            <mxRectangle width="150" height="57" as="alternateBounds" />
          </mxGeometry>
        </mxCell>
        <mxCell id="KqgRrOueQQoX8KedvCJ1-7" value="" style="shape=tableRow;horizontal=0;startSize=0;swimlaneHead=0;swimlaneBody=0;fillColor=none;collapsible=0;dropTarget=0;points=[[0,0.5],[1,0.5]];portConstraint=eastwest;top=0;left=0;right=0;bottom=0;fontSize=16;fontStyle=1" vertex="1" parent="KqgRrOueQQoX8KedvCJ1-3">
          <mxGeometry y="87" width="180" height="57" as="geometry" />
        </mxCell>
        <mxCell id="KqgRrOueQQoX8KedvCJ1-8" value="" style="shape=partialRectangle;connectable=0;fillColor=none;top=0;left=0;bottom=0;right=0;editable=1;overflow=hidden;whiteSpace=wrap;html=1;fontSize=16;fontStyle=1" vertex="1" parent="KqgRrOueQQoX8KedvCJ1-7">
          <mxGeometry width="30" height="57" as="geometry">
            <mxRectangle width="30" height="57" as="alternateBounds" />
          </mxGeometry>
        </mxCell>
        <mxCell id="KqgRrOueQQoX8KedvCJ1-9" value="customer_id" style="shape=partialRectangle;connectable=0;fillColor=none;top=0;left=0;bottom=0;right=0;align=left;spacingLeft=6;overflow=hidden;whiteSpace=wrap;html=1;fontSize=16;fontStyle=1" vertex="1" parent="KqgRrOueQQoX8KedvCJ1-7">
          <mxGeometry x="30" width="150" height="57" as="geometry">
            <mxRectangle width="150" height="57" as="alternateBounds" />
          </mxGeometry>
        </mxCell>
        <mxCell id="KqgRrOueQQoX8KedvCJ1-10" value="" style="shape=tableRow;horizontal=0;startSize=0;swimlaneHead=0;swimlaneBody=0;fillColor=none;collapsible=0;dropTarget=0;points=[[0,0.5],[1,0.5]];portConstraint=eastwest;top=0;left=0;right=0;bottom=0;fontSize=16;fontStyle=1" vertex="1" parent="KqgRrOueQQoX8KedvCJ1-3">
          <mxGeometry y="144" width="180" height="57" as="geometry" />
        </mxCell>
        <mxCell id="KqgRrOueQQoX8KedvCJ1-11" value="" style="shape=partialRectangle;connectable=0;fillColor=none;top=0;left=0;bottom=0;right=0;editable=1;overflow=hidden;whiteSpace=wrap;html=1;fontSize=16;fontStyle=1" vertex="1" parent="KqgRrOueQQoX8KedvCJ1-10">
          <mxGeometry width="30" height="57" as="geometry">
            <mxRectangle width="30" height="57" as="alternateBounds" />
          </mxGeometry>
        </mxCell>
        <mxCell id="KqgRrOueQQoX8KedvCJ1-12" value="customer_number" style="shape=partialRectangle;connectable=0;fillColor=none;top=0;left=0;bottom=0;right=0;align=left;spacingLeft=6;overflow=hidden;whiteSpace=wrap;html=1;fontSize=16;fontStyle=1" vertex="1" parent="KqgRrOueQQoX8KedvCJ1-10">
          <mxGeometry x="30" width="150" height="57" as="geometry">
            <mxRectangle width="150" height="57" as="alternateBounds" />
          </mxGeometry>
        </mxCell>
        <mxCell id="KqgRrOueQQoX8KedvCJ1-13" value="" style="shape=tableRow;horizontal=0;startSize=0;swimlaneHead=0;swimlaneBody=0;fillColor=none;collapsible=0;dropTarget=0;points=[[0,0.5],[1,0.5]];portConstraint=eastwest;top=0;left=0;right=0;bottom=0;fontSize=16;fontStyle=1" vertex="1" parent="KqgRrOueQQoX8KedvCJ1-3">
          <mxGeometry y="201" width="180" height="57" as="geometry" />
        </mxCell>
        <mxCell id="KqgRrOueQQoX8KedvCJ1-14" value="" style="shape=partialRectangle;connectable=0;fillColor=none;top=0;left=0;bottom=0;right=0;editable=1;overflow=hidden;whiteSpace=wrap;html=1;fontSize=16;fontStyle=1" vertex="1" parent="KqgRrOueQQoX8KedvCJ1-13">
          <mxGeometry width="30" height="57" as="geometry">
            <mxRectangle width="30" height="57" as="alternateBounds" />
          </mxGeometry>
        </mxCell>
        <mxCell id="KqgRrOueQQoX8KedvCJ1-15" value="first_name" style="shape=partialRectangle;connectable=0;fillColor=none;top=0;left=0;bottom=0;right=0;align=left;spacingLeft=6;overflow=hidden;whiteSpace=wrap;html=1;fontSize=16;fontStyle=1" vertex="1" parent="KqgRrOueQQoX8KedvCJ1-13">
          <mxGeometry x="30" width="150" height="57" as="geometry">
            <mxRectangle width="150" height="57" as="alternateBounds" />
          </mxGeometry>
        </mxCell>
        <mxCell id="KqgRrOueQQoX8KedvCJ1-16" value="" style="shape=tableRow;horizontal=0;startSize=0;swimlaneHead=0;swimlaneBody=0;fillColor=none;collapsible=0;dropTarget=0;points=[[0,0.5],[1,0.5]];portConstraint=eastwest;top=0;left=0;right=0;bottom=0;fontSize=16;fontStyle=1" vertex="1" parent="KqgRrOueQQoX8KedvCJ1-3">
          <mxGeometry y="258" width="180" height="57" as="geometry" />
        </mxCell>
        <mxCell id="KqgRrOueQQoX8KedvCJ1-17" value="" style="shape=partialRectangle;connectable=0;fillColor=none;top=0;left=0;bottom=0;right=0;editable=1;overflow=hidden;whiteSpace=wrap;html=1;fontSize=16;fontStyle=1" vertex="1" parent="KqgRrOueQQoX8KedvCJ1-16">
          <mxGeometry width="30" height="57" as="geometry">
            <mxRectangle width="30" height="57" as="alternateBounds" />
          </mxGeometry>
        </mxCell>
        <mxCell id="KqgRrOueQQoX8KedvCJ1-18" value="last_name" style="shape=partialRectangle;connectable=0;fillColor=none;top=0;left=0;bottom=0;right=0;align=left;spacingLeft=6;overflow=hidden;whiteSpace=wrap;html=1;fontSize=16;fontStyle=1" vertex="1" parent="KqgRrOueQQoX8KedvCJ1-16">
          <mxGeometry x="30" width="150" height="57" as="geometry">
            <mxRectangle width="150" height="57" as="alternateBounds" />
          </mxGeometry>
        </mxCell>
        <mxCell id="KqgRrOueQQoX8KedvCJ1-19" value="" style="shape=tableRow;horizontal=0;startSize=0;swimlaneHead=0;swimlaneBody=0;fillColor=none;collapsible=0;dropTarget=0;points=[[0,0.5],[1,0.5]];portConstraint=eastwest;top=0;left=0;right=0;bottom=0;fontSize=16;fontStyle=1" vertex="1" parent="KqgRrOueQQoX8KedvCJ1-3">
          <mxGeometry y="315" width="180" height="57" as="geometry" />
        </mxCell>
        <mxCell id="KqgRrOueQQoX8KedvCJ1-20" value="" style="shape=partialRectangle;connectable=0;fillColor=none;top=0;left=0;bottom=0;right=0;editable=1;overflow=hidden;whiteSpace=wrap;html=1;fontSize=16;fontStyle=1" vertex="1" parent="KqgRrOueQQoX8KedvCJ1-19">
          <mxGeometry width="30" height="57" as="geometry">
            <mxRectangle width="30" height="57" as="alternateBounds" />
          </mxGeometry>
        </mxCell>
        <mxCell id="KqgRrOueQQoX8KedvCJ1-21" value="Country" style="shape=partialRectangle;connectable=0;fillColor=none;top=0;left=0;bottom=0;right=0;align=left;spacingLeft=6;overflow=hidden;whiteSpace=wrap;html=1;fontSize=16;fontStyle=1" vertex="1" parent="KqgRrOueQQoX8KedvCJ1-19">
          <mxGeometry x="30" width="150" height="57" as="geometry">
            <mxRectangle width="150" height="57" as="alternateBounds" />
          </mxGeometry>
        </mxCell>
        <mxCell id="KqgRrOueQQoX8KedvCJ1-22" value="" style="shape=tableRow;horizontal=0;startSize=0;swimlaneHead=0;swimlaneBody=0;fillColor=none;collapsible=0;dropTarget=0;points=[[0,0.5],[1,0.5]];portConstraint=eastwest;top=0;left=0;right=0;bottom=0;fontSize=16;fontStyle=1" vertex="1" parent="KqgRrOueQQoX8KedvCJ1-3">
          <mxGeometry y="372" width="180" height="57" as="geometry" />
        </mxCell>
        <mxCell id="KqgRrOueQQoX8KedvCJ1-23" value="" style="shape=partialRectangle;connectable=0;fillColor=none;top=0;left=0;bottom=0;right=0;editable=1;overflow=hidden;whiteSpace=wrap;html=1;fontSize=16;fontStyle=1" vertex="1" parent="KqgRrOueQQoX8KedvCJ1-22">
          <mxGeometry width="30" height="57" as="geometry">
            <mxRectangle width="30" height="57" as="alternateBounds" />
          </mxGeometry>
        </mxCell>
        <mxCell id="KqgRrOueQQoX8KedvCJ1-24" value="marital_status" style="shape=partialRectangle;connectable=0;fillColor=none;top=0;left=0;bottom=0;right=0;align=left;spacingLeft=6;overflow=hidden;whiteSpace=wrap;html=1;fontSize=16;fontStyle=1" vertex="1" parent="KqgRrOueQQoX8KedvCJ1-22">
          <mxGeometry x="30" width="150" height="57" as="geometry">
            <mxRectangle width="150" height="57" as="alternateBounds" />
          </mxGeometry>
        </mxCell>
        <mxCell id="KqgRrOueQQoX8KedvCJ1-25" value="" style="shape=tableRow;horizontal=0;startSize=0;swimlaneHead=0;swimlaneBody=0;fillColor=none;collapsible=0;dropTarget=0;points=[[0,0.5],[1,0.5]];portConstraint=eastwest;top=0;left=0;right=0;bottom=0;fontSize=16;fontStyle=1" vertex="1" parent="KqgRrOueQQoX8KedvCJ1-3">
          <mxGeometry y="429" width="180" height="57" as="geometry" />
        </mxCell>
        <mxCell id="KqgRrOueQQoX8KedvCJ1-26" value="" style="shape=partialRectangle;connectable=0;fillColor=none;top=0;left=0;bottom=0;right=0;editable=1;overflow=hidden;whiteSpace=wrap;html=1;fontSize=16;fontStyle=1" vertex="1" parent="KqgRrOueQQoX8KedvCJ1-25">
          <mxGeometry width="30" height="57" as="geometry">
            <mxRectangle width="30" height="57" as="alternateBounds" />
          </mxGeometry>
        </mxCell>
        <mxCell id="KqgRrOueQQoX8KedvCJ1-27" value="gender" style="shape=partialRectangle;connectable=0;fillColor=none;top=0;left=0;bottom=0;right=0;align=left;spacingLeft=6;overflow=hidden;whiteSpace=wrap;html=1;fontSize=16;fontStyle=1" vertex="1" parent="KqgRrOueQQoX8KedvCJ1-25">
          <mxGeometry x="30" width="150" height="57" as="geometry">
            <mxRectangle width="150" height="57" as="alternateBounds" />
          </mxGeometry>
        </mxCell>
        <mxCell id="KqgRrOueQQoX8KedvCJ1-28" value="" style="shape=tableRow;horizontal=0;startSize=0;swimlaneHead=0;swimlaneBody=0;fillColor=none;collapsible=0;dropTarget=0;points=[[0,0.5],[1,0.5]];portConstraint=eastwest;top=0;left=0;right=0;bottom=0;fontSize=16;fontStyle=1" vertex="1" parent="KqgRrOueQQoX8KedvCJ1-3">
          <mxGeometry y="486" width="180" height="57" as="geometry" />
        </mxCell>
        <mxCell id="KqgRrOueQQoX8KedvCJ1-29" value="" style="shape=partialRectangle;connectable=0;fillColor=none;top=0;left=0;bottom=0;right=0;editable=1;overflow=hidden;whiteSpace=wrap;html=1;fontSize=16;fontStyle=1" vertex="1" parent="KqgRrOueQQoX8KedvCJ1-28">
          <mxGeometry width="30" height="57" as="geometry">
            <mxRectangle width="30" height="57" as="alternateBounds" />
          </mxGeometry>
        </mxCell>
        <mxCell id="KqgRrOueQQoX8KedvCJ1-30" value="birthdate" style="shape=partialRectangle;connectable=0;fillColor=none;top=0;left=0;bottom=0;right=0;align=left;spacingLeft=6;overflow=hidden;whiteSpace=wrap;html=1;fontSize=16;fontStyle=1" vertex="1" parent="KqgRrOueQQoX8KedvCJ1-28">
          <mxGeometry x="30" width="150" height="57" as="geometry">
            <mxRectangle width="150" height="57" as="alternateBounds" />
          </mxGeometry>
        </mxCell>
        <mxCell id="KqgRrOueQQoX8KedvCJ1-31" value="" style="shape=tableRow;horizontal=0;startSize=0;swimlaneHead=0;swimlaneBody=0;fillColor=none;collapsible=0;dropTarget=0;points=[[0,0.5],[1,0.5]];portConstraint=eastwest;top=0;left=0;right=0;bottom=0;fontSize=16;fontStyle=1" vertex="1" parent="KqgRrOueQQoX8KedvCJ1-3">
          <mxGeometry y="543" width="180" height="57" as="geometry" />
        </mxCell>
        <mxCell id="KqgRrOueQQoX8KedvCJ1-32" value="" style="shape=partialRectangle;connectable=0;fillColor=none;top=0;left=0;bottom=0;right=0;editable=1;overflow=hidden;whiteSpace=wrap;html=1;fontSize=16;fontStyle=1" vertex="1" parent="KqgRrOueQQoX8KedvCJ1-31">
          <mxGeometry width="30" height="57" as="geometry">
            <mxRectangle width="30" height="57" as="alternateBounds" />
          </mxGeometry>
        </mxCell>
        <mxCell id="KqgRrOueQQoX8KedvCJ1-33" value="create_date" style="shape=partialRectangle;connectable=0;fillColor=none;top=0;left=0;bottom=0;right=0;align=left;spacingLeft=6;overflow=hidden;whiteSpace=wrap;html=1;fontSize=16;fontStyle=1" vertex="1" parent="KqgRrOueQQoX8KedvCJ1-31">
          <mxGeometry x="30" width="150" height="57" as="geometry">
            <mxRectangle width="150" height="57" as="alternateBounds" />
          </mxGeometry>
        </mxCell>
        <mxCell id="KqgRrOueQQoX8KedvCJ1-34" value="&lt;span&gt;gold.dim_products&lt;/span&gt;" style="shape=table;startSize=30;container=1;collapsible=1;childLayout=tableLayout;fixedRows=1;rowLines=0;fontStyle=1;align=center;resizeLast=1;html=1;rounded=1;fillColor=#fff2cc;strokeColor=#d6b656;fontSize=16;" vertex="1" parent="1">
          <mxGeometry x="530" y="120" width="180" height="657" as="geometry" />
        </mxCell>
        <mxCell id="KqgRrOueQQoX8KedvCJ1-35" value="" style="shape=tableRow;horizontal=0;startSize=0;swimlaneHead=0;swimlaneBody=0;fillColor=none;collapsible=0;dropTarget=0;points=[[0,0.5],[1,0.5]];portConstraint=eastwest;top=0;left=0;right=0;bottom=1;fontSize=16;fontStyle=1" vertex="1" parent="KqgRrOueQQoX8KedvCJ1-34">
          <mxGeometry y="30" width="180" height="57" as="geometry" />
        </mxCell>
        <mxCell id="KqgRrOueQQoX8KedvCJ1-36" value="&lt;span&gt;PK&lt;/span&gt;" style="shape=partialRectangle;connectable=0;fillColor=none;top=0;left=0;bottom=0;right=0;fontStyle=1;overflow=hidden;whiteSpace=wrap;html=1;fontSize=16;" vertex="1" parent="KqgRrOueQQoX8KedvCJ1-35">
          <mxGeometry width="30" height="57" as="geometry">
            <mxRectangle width="30" height="57" as="alternateBounds" />
          </mxGeometry>
        </mxCell>
        <mxCell id="KqgRrOueQQoX8KedvCJ1-37" value="&lt;span&gt;product_key&lt;/span&gt;" style="shape=partialRectangle;connectable=0;fillColor=none;top=0;left=0;bottom=0;right=0;align=left;spacingLeft=6;fontStyle=5;overflow=hidden;whiteSpace=wrap;html=1;fontSize=16;" vertex="1" parent="KqgRrOueQQoX8KedvCJ1-35">
          <mxGeometry x="30" width="150" height="57" as="geometry">
            <mxRectangle width="150" height="57" as="alternateBounds" />
          </mxGeometry>
        </mxCell>
        <mxCell id="KqgRrOueQQoX8KedvCJ1-38" value="" style="shape=tableRow;horizontal=0;startSize=0;swimlaneHead=0;swimlaneBody=0;fillColor=none;collapsible=0;dropTarget=0;points=[[0,0.5],[1,0.5]];portConstraint=eastwest;top=0;left=0;right=0;bottom=0;fontSize=16;fontStyle=1" vertex="1" parent="KqgRrOueQQoX8KedvCJ1-34">
          <mxGeometry y="87" width="180" height="57" as="geometry" />
        </mxCell>
        <mxCell id="KqgRrOueQQoX8KedvCJ1-39" value="" style="shape=partialRectangle;connectable=0;fillColor=none;top=0;left=0;bottom=0;right=0;editable=1;overflow=hidden;whiteSpace=wrap;html=1;fontSize=16;fontStyle=1" vertex="1" parent="KqgRrOueQQoX8KedvCJ1-38">
          <mxGeometry width="30" height="57" as="geometry">
            <mxRectangle width="30" height="57" as="alternateBounds" />
          </mxGeometry>
        </mxCell>
        <mxCell id="KqgRrOueQQoX8KedvCJ1-40" value="product_id" style="shape=partialRectangle;connectable=0;fillColor=none;top=0;left=0;bottom=0;right=0;align=left;spacingLeft=6;overflow=hidden;whiteSpace=wrap;html=1;fontSize=16;fontStyle=1" vertex="1" parent="KqgRrOueQQoX8KedvCJ1-38">
          <mxGeometry x="30" width="150" height="57" as="geometry">
            <mxRectangle width="150" height="57" as="alternateBounds" />
          </mxGeometry>
        </mxCell>
        <mxCell id="KqgRrOueQQoX8KedvCJ1-41" value="" style="shape=tableRow;horizontal=0;startSize=0;swimlaneHead=0;swimlaneBody=0;fillColor=none;collapsible=0;dropTarget=0;points=[[0,0.5],[1,0.5]];portConstraint=eastwest;top=0;left=0;right=0;bottom=0;fontSize=16;fontStyle=1" vertex="1" parent="KqgRrOueQQoX8KedvCJ1-34">
          <mxGeometry y="144" width="180" height="57" as="geometry" />
        </mxCell>
        <mxCell id="KqgRrOueQQoX8KedvCJ1-42" value="" style="shape=partialRectangle;connectable=0;fillColor=none;top=0;left=0;bottom=0;right=0;editable=1;overflow=hidden;whiteSpace=wrap;html=1;fontSize=16;fontStyle=1" vertex="1" parent="KqgRrOueQQoX8KedvCJ1-41">
          <mxGeometry width="30" height="57" as="geometry">
            <mxRectangle width="30" height="57" as="alternateBounds" />
          </mxGeometry>
        </mxCell>
        <mxCell id="KqgRrOueQQoX8KedvCJ1-43" value="product_number" style="shape=partialRectangle;connectable=0;fillColor=none;top=0;left=0;bottom=0;right=0;align=left;spacingLeft=6;overflow=hidden;whiteSpace=wrap;html=1;fontSize=16;fontStyle=1" vertex="1" parent="KqgRrOueQQoX8KedvCJ1-41">
          <mxGeometry x="30" width="150" height="57" as="geometry">
            <mxRectangle width="150" height="57" as="alternateBounds" />
          </mxGeometry>
        </mxCell>
        <mxCell id="KqgRrOueQQoX8KedvCJ1-44" value="" style="shape=tableRow;horizontal=0;startSize=0;swimlaneHead=0;swimlaneBody=0;fillColor=none;collapsible=0;dropTarget=0;points=[[0,0.5],[1,0.5]];portConstraint=eastwest;top=0;left=0;right=0;bottom=0;fontSize=16;fontStyle=1" vertex="1" parent="KqgRrOueQQoX8KedvCJ1-34">
          <mxGeometry y="201" width="180" height="57" as="geometry" />
        </mxCell>
        <mxCell id="KqgRrOueQQoX8KedvCJ1-45" value="" style="shape=partialRectangle;connectable=0;fillColor=none;top=0;left=0;bottom=0;right=0;editable=1;overflow=hidden;whiteSpace=wrap;html=1;fontSize=16;fontStyle=1" vertex="1" parent="KqgRrOueQQoX8KedvCJ1-44">
          <mxGeometry width="30" height="57" as="geometry">
            <mxRectangle width="30" height="57" as="alternateBounds" />
          </mxGeometry>
        </mxCell>
        <mxCell id="KqgRrOueQQoX8KedvCJ1-46" value="product_name" style="shape=partialRectangle;connectable=0;fillColor=none;top=0;left=0;bottom=0;right=0;align=left;spacingLeft=6;overflow=hidden;whiteSpace=wrap;html=1;fontSize=16;fontStyle=1" vertex="1" parent="KqgRrOueQQoX8KedvCJ1-44">
          <mxGeometry x="30" width="150" height="57" as="geometry">
            <mxRectangle width="150" height="57" as="alternateBounds" />
          </mxGeometry>
        </mxCell>
        <mxCell id="KqgRrOueQQoX8KedvCJ1-47" value="" style="shape=tableRow;horizontal=0;startSize=0;swimlaneHead=0;swimlaneBody=0;fillColor=none;collapsible=0;dropTarget=0;points=[[0,0.5],[1,0.5]];portConstraint=eastwest;top=0;left=0;right=0;bottom=0;fontSize=16;fontStyle=1" vertex="1" parent="KqgRrOueQQoX8KedvCJ1-34">
          <mxGeometry y="258" width="180" height="57" as="geometry" />
        </mxCell>
        <mxCell id="KqgRrOueQQoX8KedvCJ1-48" value="" style="shape=partialRectangle;connectable=0;fillColor=none;top=0;left=0;bottom=0;right=0;editable=1;overflow=hidden;whiteSpace=wrap;html=1;fontSize=16;fontStyle=1" vertex="1" parent="KqgRrOueQQoX8KedvCJ1-47">
          <mxGeometry width="30" height="57" as="geometry">
            <mxRectangle width="30" height="57" as="alternateBounds" />
          </mxGeometry>
        </mxCell>
        <mxCell id="KqgRrOueQQoX8KedvCJ1-49" value="category_id" style="shape=partialRectangle;connectable=0;fillColor=none;top=0;left=0;bottom=0;right=0;align=left;spacingLeft=6;overflow=hidden;whiteSpace=wrap;html=1;fontSize=16;fontStyle=1" vertex="1" parent="KqgRrOueQQoX8KedvCJ1-47">
          <mxGeometry x="30" width="150" height="57" as="geometry">
            <mxRectangle width="150" height="57" as="alternateBounds" />
          </mxGeometry>
        </mxCell>
        <mxCell id="KqgRrOueQQoX8KedvCJ1-50" value="" style="shape=tableRow;horizontal=0;startSize=0;swimlaneHead=0;swimlaneBody=0;fillColor=none;collapsible=0;dropTarget=0;points=[[0,0.5],[1,0.5]];portConstraint=eastwest;top=0;left=0;right=0;bottom=0;fontSize=16;fontStyle=1" vertex="1" parent="KqgRrOueQQoX8KedvCJ1-34">
          <mxGeometry y="315" width="180" height="57" as="geometry" />
        </mxCell>
        <mxCell id="KqgRrOueQQoX8KedvCJ1-51" value="" style="shape=partialRectangle;connectable=0;fillColor=none;top=0;left=0;bottom=0;right=0;editable=1;overflow=hidden;whiteSpace=wrap;html=1;fontSize=16;fontStyle=1" vertex="1" parent="KqgRrOueQQoX8KedvCJ1-50">
          <mxGeometry width="30" height="57" as="geometry">
            <mxRectangle width="30" height="57" as="alternateBounds" />
          </mxGeometry>
        </mxCell>
        <mxCell id="KqgRrOueQQoX8KedvCJ1-52" value="category" style="shape=partialRectangle;connectable=0;fillColor=none;top=0;left=0;bottom=0;right=0;align=left;spacingLeft=6;overflow=hidden;whiteSpace=wrap;html=1;fontSize=16;fontStyle=1" vertex="1" parent="KqgRrOueQQoX8KedvCJ1-50">
          <mxGeometry x="30" width="150" height="57" as="geometry">
            <mxRectangle width="150" height="57" as="alternateBounds" />
          </mxGeometry>
        </mxCell>
        <mxCell id="KqgRrOueQQoX8KedvCJ1-53" value="" style="shape=tableRow;horizontal=0;startSize=0;swimlaneHead=0;swimlaneBody=0;fillColor=none;collapsible=0;dropTarget=0;points=[[0,0.5],[1,0.5]];portConstraint=eastwest;top=0;left=0;right=0;bottom=0;fontSize=16;fontStyle=1" vertex="1" parent="KqgRrOueQQoX8KedvCJ1-34">
          <mxGeometry y="372" width="180" height="57" as="geometry" />
        </mxCell>
        <mxCell id="KqgRrOueQQoX8KedvCJ1-54" value="" style="shape=partialRectangle;connectable=0;fillColor=none;top=0;left=0;bottom=0;right=0;editable=1;overflow=hidden;whiteSpace=wrap;html=1;fontSize=16;fontStyle=1" vertex="1" parent="KqgRrOueQQoX8KedvCJ1-53">
          <mxGeometry width="30" height="57" as="geometry">
            <mxRectangle width="30" height="57" as="alternateBounds" />
          </mxGeometry>
        </mxCell>
        <mxCell id="KqgRrOueQQoX8KedvCJ1-55" value="subcategory" style="shape=partialRectangle;connectable=0;fillColor=none;top=0;left=0;bottom=0;right=0;align=left;spacingLeft=6;overflow=hidden;whiteSpace=wrap;html=1;fontSize=16;fontStyle=1" vertex="1" parent="KqgRrOueQQoX8KedvCJ1-53">
          <mxGeometry x="30" width="150" height="57" as="geometry">
            <mxRectangle width="150" height="57" as="alternateBounds" />
          </mxGeometry>
        </mxCell>
        <mxCell id="KqgRrOueQQoX8KedvCJ1-56" value="" style="shape=tableRow;horizontal=0;startSize=0;swimlaneHead=0;swimlaneBody=0;fillColor=none;collapsible=0;dropTarget=0;points=[[0,0.5],[1,0.5]];portConstraint=eastwest;top=0;left=0;right=0;bottom=0;fontSize=16;fontStyle=1" vertex="1" parent="KqgRrOueQQoX8KedvCJ1-34">
          <mxGeometry y="429" width="180" height="57" as="geometry" />
        </mxCell>
        <mxCell id="KqgRrOueQQoX8KedvCJ1-57" value="" style="shape=partialRectangle;connectable=0;fillColor=none;top=0;left=0;bottom=0;right=0;editable=1;overflow=hidden;whiteSpace=wrap;html=1;fontSize=16;fontStyle=1" vertex="1" parent="KqgRrOueQQoX8KedvCJ1-56">
          <mxGeometry width="30" height="57" as="geometry">
            <mxRectangle width="30" height="57" as="alternateBounds" />
          </mxGeometry>
        </mxCell>
        <mxCell id="KqgRrOueQQoX8KedvCJ1-58" value="maintenance" style="shape=partialRectangle;connectable=0;fillColor=none;top=0;left=0;bottom=0;right=0;align=left;spacingLeft=6;overflow=hidden;whiteSpace=wrap;html=1;fontSize=16;fontStyle=1" vertex="1" parent="KqgRrOueQQoX8KedvCJ1-56">
          <mxGeometry x="30" width="150" height="57" as="geometry">
            <mxRectangle width="150" height="57" as="alternateBounds" />
          </mxGeometry>
        </mxCell>
        <mxCell id="KqgRrOueQQoX8KedvCJ1-59" value="" style="shape=tableRow;horizontal=0;startSize=0;swimlaneHead=0;swimlaneBody=0;fillColor=none;collapsible=0;dropTarget=0;points=[[0,0.5],[1,0.5]];portConstraint=eastwest;top=0;left=0;right=0;bottom=0;fontSize=16;fontStyle=1" vertex="1" parent="KqgRrOueQQoX8KedvCJ1-34">
          <mxGeometry y="486" width="180" height="57" as="geometry" />
        </mxCell>
        <mxCell id="KqgRrOueQQoX8KedvCJ1-60" value="" style="shape=partialRectangle;connectable=0;fillColor=none;top=0;left=0;bottom=0;right=0;editable=1;overflow=hidden;whiteSpace=wrap;html=1;fontSize=16;fontStyle=1" vertex="1" parent="KqgRrOueQQoX8KedvCJ1-59">
          <mxGeometry width="30" height="57" as="geometry">
            <mxRectangle width="30" height="57" as="alternateBounds" />
          </mxGeometry>
        </mxCell>
        <mxCell id="KqgRrOueQQoX8KedvCJ1-61" value="cost" style="shape=partialRectangle;connectable=0;fillColor=none;top=0;left=0;bottom=0;right=0;align=left;spacingLeft=6;overflow=hidden;whiteSpace=wrap;html=1;fontSize=16;fontStyle=1" vertex="1" parent="KqgRrOueQQoX8KedvCJ1-59">
          <mxGeometry x="30" width="150" height="57" as="geometry">
            <mxRectangle width="150" height="57" as="alternateBounds" />
          </mxGeometry>
        </mxCell>
        <mxCell id="KqgRrOueQQoX8KedvCJ1-62" value="" style="shape=tableRow;horizontal=0;startSize=0;swimlaneHead=0;swimlaneBody=0;fillColor=none;collapsible=0;dropTarget=0;points=[[0,0.5],[1,0.5]];portConstraint=eastwest;top=0;left=0;right=0;bottom=0;fontSize=16;fontStyle=1" vertex="1" parent="KqgRrOueQQoX8KedvCJ1-34">
          <mxGeometry y="543" width="180" height="57" as="geometry" />
        </mxCell>
        <mxCell id="KqgRrOueQQoX8KedvCJ1-63" value="" style="shape=partialRectangle;connectable=0;fillColor=none;top=0;left=0;bottom=0;right=0;editable=1;overflow=hidden;whiteSpace=wrap;html=1;fontSize=16;fontStyle=1" vertex="1" parent="KqgRrOueQQoX8KedvCJ1-62">
          <mxGeometry width="30" height="57" as="geometry">
            <mxRectangle width="30" height="57" as="alternateBounds" />
          </mxGeometry>
        </mxCell>
        <mxCell id="KqgRrOueQQoX8KedvCJ1-64" value="product_line" style="shape=partialRectangle;connectable=0;fillColor=none;top=0;left=0;bottom=0;right=0;align=left;spacingLeft=6;overflow=hidden;whiteSpace=wrap;html=1;fontSize=16;fontStyle=1" vertex="1" parent="KqgRrOueQQoX8KedvCJ1-62">
          <mxGeometry x="30" width="150" height="57" as="geometry">
            <mxRectangle width="150" height="57" as="alternateBounds" />
          </mxGeometry>
        </mxCell>
        <mxCell id="KqgRrOueQQoX8KedvCJ1-65" value="" style="shape=tableRow;horizontal=0;startSize=0;swimlaneHead=0;swimlaneBody=0;fillColor=none;collapsible=0;dropTarget=0;points=[[0,0.5],[1,0.5]];portConstraint=eastwest;top=0;left=0;right=0;bottom=0;fontSize=16;fontStyle=1" vertex="1" parent="KqgRrOueQQoX8KedvCJ1-34">
          <mxGeometry y="600" width="180" height="57" as="geometry" />
        </mxCell>
        <mxCell id="KqgRrOueQQoX8KedvCJ1-66" value="" style="shape=partialRectangle;connectable=0;fillColor=none;top=0;left=0;bottom=0;right=0;editable=1;overflow=hidden;whiteSpace=wrap;html=1;fontSize=16;fontStyle=1" vertex="1" parent="KqgRrOueQQoX8KedvCJ1-65">
          <mxGeometry width="30" height="57" as="geometry">
            <mxRectangle width="30" height="57" as="alternateBounds" />
          </mxGeometry>
        </mxCell>
        <mxCell id="KqgRrOueQQoX8KedvCJ1-67" value="start_date" style="shape=partialRectangle;connectable=0;fillColor=none;top=0;left=0;bottom=0;right=0;align=left;spacingLeft=6;overflow=hidden;whiteSpace=wrap;html=1;fontSize=16;fontStyle=1" vertex="1" parent="KqgRrOueQQoX8KedvCJ1-65">
          <mxGeometry x="30" width="150" height="57" as="geometry">
            <mxRectangle width="150" height="57" as="alternateBounds" />
          </mxGeometry>
        </mxCell>
        <mxCell id="KqgRrOueQQoX8KedvCJ1-68" value="&lt;span&gt;gold.fact_sales&lt;/span&gt;" style="shape=table;startSize=30;container=1;collapsible=1;childLayout=tableLayout;fixedRows=1;rowLines=0;fontStyle=1;align=center;resizeLast=1;html=1;rounded=1;fillColor=#fff2cc;strokeColor=#d6b656;fontSize=16;" vertex="1" parent="1">
          <mxGeometry x="250" y="120" width="180" height="600" as="geometry" />
        </mxCell>
        <mxCell id="KqgRrOueQQoX8KedvCJ1-72" value="" style="shape=tableRow;horizontal=0;startSize=0;swimlaneHead=0;swimlaneBody=0;fillColor=none;collapsible=0;dropTarget=0;points=[[0,0.5],[1,0.5]];portConstraint=eastwest;top=0;left=0;right=0;bottom=0;fontSize=16;fontStyle=1" vertex="1" parent="KqgRrOueQQoX8KedvCJ1-68">
          <mxGeometry y="30" width="180" height="57" as="geometry" />
        </mxCell>
        <mxCell id="KqgRrOueQQoX8KedvCJ1-73" value="" style="shape=partialRectangle;connectable=0;fillColor=none;top=0;left=0;bottom=0;right=0;editable=1;overflow=hidden;whiteSpace=wrap;html=1;fontSize=16;fontStyle=1" vertex="1" parent="KqgRrOueQQoX8KedvCJ1-72">
          <mxGeometry width="50" height="57" as="geometry">
            <mxRectangle width="50" height="57" as="alternateBounds" />
          </mxGeometry>
        </mxCell>
        <mxCell id="KqgRrOueQQoX8KedvCJ1-74" value="order_number" style="shape=partialRectangle;connectable=0;fillColor=none;top=0;left=0;bottom=0;right=0;align=left;spacingLeft=6;overflow=hidden;whiteSpace=wrap;html=1;fontSize=16;fontStyle=1" vertex="1" parent="KqgRrOueQQoX8KedvCJ1-72">
          <mxGeometry x="50" width="130" height="57" as="geometry">
            <mxRectangle width="130" height="57" as="alternateBounds" />
          </mxGeometry>
        </mxCell>
        <mxCell id="KqgRrOueQQoX8KedvCJ1-78" value="" style="shape=tableRow;horizontal=0;startSize=0;swimlaneHead=0;swimlaneBody=0;fillColor=none;collapsible=0;dropTarget=0;points=[[0,0.5],[1,0.5]];portConstraint=eastwest;top=0;left=0;right=0;bottom=0;fontSize=16;fontStyle=1" vertex="1" parent="KqgRrOueQQoX8KedvCJ1-68">
          <mxGeometry y="87" width="180" height="57" as="geometry" />
        </mxCell>
        <mxCell id="KqgRrOueQQoX8KedvCJ1-79" value="FK1" style="shape=partialRectangle;connectable=0;fillColor=none;top=0;left=0;bottom=0;right=0;editable=1;overflow=hidden;whiteSpace=wrap;html=1;fontSize=16;fontStyle=1" vertex="1" parent="KqgRrOueQQoX8KedvCJ1-78">
          <mxGeometry width="50" height="57" as="geometry">
            <mxRectangle width="50" height="57" as="alternateBounds" />
          </mxGeometry>
        </mxCell>
        <mxCell id="KqgRrOueQQoX8KedvCJ1-80" value="product_key" style="shape=partialRectangle;connectable=0;fillColor=none;top=0;left=0;bottom=0;right=0;align=left;spacingLeft=6;overflow=hidden;whiteSpace=wrap;html=1;fontSize=16;fontStyle=1" vertex="1" parent="KqgRrOueQQoX8KedvCJ1-78">
          <mxGeometry x="50" width="130" height="57" as="geometry">
            <mxRectangle width="130" height="57" as="alternateBounds" />
          </mxGeometry>
        </mxCell>
        <mxCell id="KqgRrOueQQoX8KedvCJ1-81" value="" style="shape=tableRow;horizontal=0;startSize=0;swimlaneHead=0;swimlaneBody=0;fillColor=none;collapsible=0;dropTarget=0;points=[[0,0.5],[1,0.5]];portConstraint=eastwest;top=0;left=0;right=0;bottom=0;fontSize=16;fontStyle=1" vertex="1" parent="KqgRrOueQQoX8KedvCJ1-68">
          <mxGeometry y="144" width="180" height="57" as="geometry" />
        </mxCell>
        <mxCell id="KqgRrOueQQoX8KedvCJ1-82" value="FK2" style="shape=partialRectangle;connectable=0;fillColor=none;top=0;left=0;bottom=0;right=0;editable=1;overflow=hidden;whiteSpace=wrap;html=1;fontSize=16;fontStyle=1" vertex="1" parent="KqgRrOueQQoX8KedvCJ1-81">
          <mxGeometry width="50" height="57" as="geometry">
            <mxRectangle width="50" height="57" as="alternateBounds" />
          </mxGeometry>
        </mxCell>
        <mxCell id="KqgRrOueQQoX8KedvCJ1-83" value="customer_key" style="shape=partialRectangle;connectable=0;fillColor=none;top=0;left=0;bottom=0;right=0;align=left;spacingLeft=6;overflow=hidden;whiteSpace=wrap;html=1;fontSize=16;fontStyle=1" vertex="1" parent="KqgRrOueQQoX8KedvCJ1-81">
          <mxGeometry x="50" width="130" height="57" as="geometry">
            <mxRectangle width="130" height="57" as="alternateBounds" />
          </mxGeometry>
        </mxCell>
        <mxCell id="KqgRrOueQQoX8KedvCJ1-84" value="" style="shape=tableRow;horizontal=0;startSize=0;swimlaneHead=0;swimlaneBody=0;fillColor=none;collapsible=0;dropTarget=0;points=[[0,0.5],[1,0.5]];portConstraint=eastwest;top=0;left=0;right=0;bottom=0;fontSize=16;fontStyle=1" vertex="1" parent="KqgRrOueQQoX8KedvCJ1-68">
          <mxGeometry y="201" width="180" height="57" as="geometry" />
        </mxCell>
        <mxCell id="KqgRrOueQQoX8KedvCJ1-85" value="" style="shape=partialRectangle;connectable=0;fillColor=none;top=0;left=0;bottom=0;right=0;editable=1;overflow=hidden;whiteSpace=wrap;html=1;fontSize=16;fontStyle=1" vertex="1" parent="KqgRrOueQQoX8KedvCJ1-84">
          <mxGeometry width="50" height="57" as="geometry">
            <mxRectangle width="50" height="57" as="alternateBounds" />
          </mxGeometry>
        </mxCell>
        <mxCell id="KqgRrOueQQoX8KedvCJ1-86" value="order_date" style="shape=partialRectangle;connectable=0;fillColor=none;top=0;left=0;bottom=0;right=0;align=left;spacingLeft=6;overflow=hidden;whiteSpace=wrap;html=1;fontSize=16;fontStyle=1" vertex="1" parent="KqgRrOueQQoX8KedvCJ1-84">
          <mxGeometry x="50" width="130" height="57" as="geometry">
            <mxRectangle width="130" height="57" as="alternateBounds" />
          </mxGeometry>
        </mxCell>
        <mxCell id="KqgRrOueQQoX8KedvCJ1-108" value="" style="shape=tableRow;horizontal=0;startSize=0;swimlaneHead=0;swimlaneBody=0;fillColor=none;collapsible=0;dropTarget=0;points=[[0,0.5],[1,0.5]];portConstraint=eastwest;top=0;left=0;right=0;bottom=0;fontSize=16;fontStyle=1" vertex="1" parent="KqgRrOueQQoX8KedvCJ1-68">
          <mxGeometry y="258" width="180" height="57" as="geometry" />
        </mxCell>
        <mxCell id="KqgRrOueQQoX8KedvCJ1-109" value="" style="shape=partialRectangle;connectable=0;fillColor=none;top=0;left=0;bottom=0;right=0;editable=1;overflow=hidden;whiteSpace=wrap;html=1;fontSize=16;fontStyle=1" vertex="1" parent="KqgRrOueQQoX8KedvCJ1-108">
          <mxGeometry width="50" height="57" as="geometry">
            <mxRectangle width="50" height="57" as="alternateBounds" />
          </mxGeometry>
        </mxCell>
        <mxCell id="KqgRrOueQQoX8KedvCJ1-110" value="shipping_date" style="shape=partialRectangle;connectable=0;fillColor=none;top=0;left=0;bottom=0;right=0;align=left;spacingLeft=6;overflow=hidden;whiteSpace=wrap;html=1;fontSize=16;fontStyle=1" vertex="1" parent="KqgRrOueQQoX8KedvCJ1-108">
          <mxGeometry x="50" width="130" height="57" as="geometry">
            <mxRectangle width="130" height="57" as="alternateBounds" />
          </mxGeometry>
        </mxCell>
        <mxCell id="KqgRrOueQQoX8KedvCJ1-87" value="" style="shape=tableRow;horizontal=0;startSize=0;swimlaneHead=0;swimlaneBody=0;fillColor=none;collapsible=0;dropTarget=0;points=[[0,0.5],[1,0.5]];portConstraint=eastwest;top=0;left=0;right=0;bottom=0;fontSize=16;fontStyle=1" vertex="1" parent="KqgRrOueQQoX8KedvCJ1-68">
          <mxGeometry y="315" width="180" height="57" as="geometry" />
        </mxCell>
        <mxCell id="KqgRrOueQQoX8KedvCJ1-88" value="" style="shape=partialRectangle;connectable=0;fillColor=none;top=0;left=0;bottom=0;right=0;editable=1;overflow=hidden;whiteSpace=wrap;html=1;fontSize=16;fontStyle=1" vertex="1" parent="KqgRrOueQQoX8KedvCJ1-87">
          <mxGeometry width="50" height="57" as="geometry">
            <mxRectangle width="50" height="57" as="alternateBounds" />
          </mxGeometry>
        </mxCell>
        <mxCell id="KqgRrOueQQoX8KedvCJ1-89" value="shipping_date" style="shape=partialRectangle;connectable=0;fillColor=none;top=0;left=0;bottom=0;right=0;align=left;spacingLeft=6;overflow=hidden;whiteSpace=wrap;html=1;fontSize=16;fontStyle=1" vertex="1" parent="KqgRrOueQQoX8KedvCJ1-87">
          <mxGeometry x="50" width="130" height="57" as="geometry">
            <mxRectangle width="130" height="57" as="alternateBounds" />
          </mxGeometry>
        </mxCell>
        <mxCell id="KqgRrOueQQoX8KedvCJ1-90" value="" style="shape=tableRow;horizontal=0;startSize=0;swimlaneHead=0;swimlaneBody=0;fillColor=none;collapsible=0;dropTarget=0;points=[[0,0.5],[1,0.5]];portConstraint=eastwest;top=0;left=0;right=0;bottom=0;fontSize=16;fontStyle=1" vertex="1" parent="KqgRrOueQQoX8KedvCJ1-68">
          <mxGeometry y="372" width="180" height="57" as="geometry" />
        </mxCell>
        <mxCell id="KqgRrOueQQoX8KedvCJ1-91" value="" style="shape=partialRectangle;connectable=0;fillColor=none;top=0;left=0;bottom=0;right=0;editable=1;overflow=hidden;whiteSpace=wrap;html=1;fontSize=16;fontStyle=1" vertex="1" parent="KqgRrOueQQoX8KedvCJ1-90">
          <mxGeometry width="50" height="57" as="geometry">
            <mxRectangle width="50" height="57" as="alternateBounds" />
          </mxGeometry>
        </mxCell>
        <mxCell id="KqgRrOueQQoX8KedvCJ1-92" value="due_date" style="shape=partialRectangle;connectable=0;fillColor=none;top=0;left=0;bottom=0;right=0;align=left;spacingLeft=6;overflow=hidden;whiteSpace=wrap;html=1;fontSize=16;fontStyle=1" vertex="1" parent="KqgRrOueQQoX8KedvCJ1-90">
          <mxGeometry x="50" width="130" height="57" as="geometry">
            <mxRectangle width="130" height="57" as="alternateBounds" />
          </mxGeometry>
        </mxCell>
        <mxCell id="KqgRrOueQQoX8KedvCJ1-93" value="" style="shape=tableRow;horizontal=0;startSize=0;swimlaneHead=0;swimlaneBody=0;fillColor=none;collapsible=0;dropTarget=0;points=[[0,0.5],[1,0.5]];portConstraint=eastwest;top=0;left=0;right=0;bottom=0;fontSize=16;fontStyle=1" vertex="1" parent="KqgRrOueQQoX8KedvCJ1-68">
          <mxGeometry y="429" width="180" height="57" as="geometry" />
        </mxCell>
        <mxCell id="KqgRrOueQQoX8KedvCJ1-94" value="" style="shape=partialRectangle;connectable=0;fillColor=none;top=0;left=0;bottom=0;right=0;editable=1;overflow=hidden;whiteSpace=wrap;html=1;fontSize=16;fontStyle=1" vertex="1" parent="KqgRrOueQQoX8KedvCJ1-93">
          <mxGeometry width="50" height="57" as="geometry">
            <mxRectangle width="50" height="57" as="alternateBounds" />
          </mxGeometry>
        </mxCell>
        <mxCell id="KqgRrOueQQoX8KedvCJ1-95" value="sales_amount" style="shape=partialRectangle;connectable=0;fillColor=none;top=0;left=0;bottom=0;right=0;align=left;spacingLeft=6;overflow=hidden;whiteSpace=wrap;html=1;fontSize=16;fontStyle=1" vertex="1" parent="KqgRrOueQQoX8KedvCJ1-93">
          <mxGeometry x="50" width="130" height="57" as="geometry">
            <mxRectangle width="130" height="57" as="alternateBounds" />
          </mxGeometry>
        </mxCell>
        <mxCell id="KqgRrOueQQoX8KedvCJ1-96" value="" style="shape=tableRow;horizontal=0;startSize=0;swimlaneHead=0;swimlaneBody=0;fillColor=none;collapsible=0;dropTarget=0;points=[[0,0.5],[1,0.5]];portConstraint=eastwest;top=0;left=0;right=0;bottom=0;fontSize=16;fontStyle=1" vertex="1" parent="KqgRrOueQQoX8KedvCJ1-68">
          <mxGeometry y="486" width="180" height="57" as="geometry" />
        </mxCell>
        <mxCell id="KqgRrOueQQoX8KedvCJ1-97" value="" style="shape=partialRectangle;connectable=0;fillColor=none;top=0;left=0;bottom=0;right=0;editable=1;overflow=hidden;whiteSpace=wrap;html=1;fontSize=16;fontStyle=1" vertex="1" parent="KqgRrOueQQoX8KedvCJ1-96">
          <mxGeometry width="50" height="57" as="geometry">
            <mxRectangle width="50" height="57" as="alternateBounds" />
          </mxGeometry>
        </mxCell>
        <mxCell id="KqgRrOueQQoX8KedvCJ1-98" value="quantity" style="shape=partialRectangle;connectable=0;fillColor=none;top=0;left=0;bottom=0;right=0;align=left;spacingLeft=6;overflow=hidden;whiteSpace=wrap;html=1;fontSize=16;fontStyle=1" vertex="1" parent="KqgRrOueQQoX8KedvCJ1-96">
          <mxGeometry x="50" width="130" height="57" as="geometry">
            <mxRectangle width="130" height="57" as="alternateBounds" />
          </mxGeometry>
        </mxCell>
        <mxCell id="KqgRrOueQQoX8KedvCJ1-99" value="" style="shape=tableRow;horizontal=0;startSize=0;swimlaneHead=0;swimlaneBody=0;fillColor=none;collapsible=0;dropTarget=0;points=[[0,0.5],[1,0.5]];portConstraint=eastwest;top=0;left=0;right=0;bottom=0;fontSize=16;fontStyle=1" vertex="1" parent="KqgRrOueQQoX8KedvCJ1-68">
          <mxGeometry y="543" width="180" height="57" as="geometry" />
        </mxCell>
        <mxCell id="KqgRrOueQQoX8KedvCJ1-100" value="" style="shape=partialRectangle;connectable=0;fillColor=none;top=0;left=0;bottom=0;right=0;editable=1;overflow=hidden;whiteSpace=wrap;html=1;fontSize=16;fontStyle=1" vertex="1" parent="KqgRrOueQQoX8KedvCJ1-99">
          <mxGeometry width="50" height="57" as="geometry">
            <mxRectangle width="50" height="57" as="alternateBounds" />
          </mxGeometry>
        </mxCell>
        <mxCell id="KqgRrOueQQoX8KedvCJ1-101" value="price" style="shape=partialRectangle;connectable=0;fillColor=none;top=0;left=0;bottom=0;right=0;align=left;spacingLeft=6;overflow=hidden;whiteSpace=wrap;html=1;fontSize=16;fontStyle=1" vertex="1" parent="KqgRrOueQQoX8KedvCJ1-99">
          <mxGeometry x="50" width="130" height="57" as="geometry">
            <mxRectangle width="130" height="57" as="alternateBounds" />
          </mxGeometry>
        </mxCell>
        <mxCell id="KqgRrOueQQoX8KedvCJ1-111" value="" style="edgeStyle=entityRelationEdgeStyle;fontSize=12;html=1;endArrow=ERzeroToMany;startArrow=ERmandOne;rounded=0;entryX=0;entryY=0.5;entryDx=0;entryDy=0;" edge="1" parent="1" target="KqgRrOueQQoX8KedvCJ1-81">
          <mxGeometry width="100" height="100" relative="1" as="geometry">
            <mxPoint x="120" y="190" as="sourcePoint" />
            <mxPoint x="220" y="90" as="targetPoint" />
            <Array as="points">
              <mxPoint x="200" y="150" />
            </Array>
          </mxGeometry>
        </mxCell>
        <mxCell id="KqgRrOueQQoX8KedvCJ1-114" value="" style="edgeStyle=entityRelationEdgeStyle;fontSize=12;html=1;endArrow=ERzeroToMany;startArrow=ERmandOne;rounded=0;entryX=0.989;entryY=0.649;entryDx=0;entryDy=0;entryPerimeter=0;exitX=0;exitY=0.702;exitDx=0;exitDy=0;exitPerimeter=0;" edge="1" parent="1" source="KqgRrOueQQoX8KedvCJ1-35" target="KqgRrOueQQoX8KedvCJ1-78">
          <mxGeometry width="100" height="100" relative="1" as="geometry">
            <mxPoint x="430" y="330" as="sourcePoint" />
            <mxPoint x="530" y="230" as="targetPoint" />
          </mxGeometry>
        </mxCell>
        <mxCell id="KqgRrOueQQoX8KedvCJ1-115" value="&lt;h1 style=&quot;margin-top: 0px;&quot;&gt;Sales Calculation&lt;/h1&gt;&lt;p&gt;&lt;font style=&quot;font-size: 16px;&quot;&gt;Sales = Quantity * Price&lt;/font&gt;&lt;/p&gt;" style="text;html=1;whiteSpace=wrap;overflow=hidden;rounded=0;" vertex="1" parent="1">
          <mxGeometry x="280" y="750" width="205" height="90" as="geometry" />
        </mxCell>
        <mxCell id="KqgRrOueQQoX8KedvCJ1-117" value="" style="endArrow=none;dashed=1;html=1;rounded=0;exitX=0.75;exitY=0;exitDx=0;exitDy=0;" edge="1" parent="1" source="KqgRrOueQQoX8KedvCJ1-115" target="KqgRrOueQQoX8KedvCJ1-93">
          <mxGeometry width="50" height="50" relative="1" as="geometry">
            <mxPoint x="375" y="760" as="sourcePoint" />
            <mxPoint x="425" y="710" as="targetPoint" />
            <Array as="points">
              <mxPoint x="400" y="670" />
            </Array>
          </mxGeometry>
        </mxCell>
      </root>
    </mxGraphModel>
  </diagram>
</mxfile>
